<svg width="20" height="20" viewBox="0 0 20 20" fill="none" xmlns="http://www.w3.org/2000/svg">
<rect opacity="0.3" x="5.83398" y="3.33203" width="8.33333" height="3.33333" fill="#0086E1"/>
<path fill-rule="evenodd" clip-rule="evenodd" d="M6.16602 1.66797C5.06145 1.66797 4.16602 2.5634 4.16602 3.66797V16.3346C4.16602 17.4392 5.06145 18.3346 6.16602 18.3346H13.8327C14.9373 18.3346 15.8327 17.4392 15.8327 16.3346V3.66797C15.8327 2.5634 14.9373 1.66797 13.8327 1.66797H6.16602ZM7.49935 9.16797C7.49935 9.62821 7.12625 10.0013 6.66602 10.0013C6.20578 10.0013 5.83268 9.62821 5.83268 9.16797C5.83268 8.70773 6.20578 8.33463 6.66602 8.33463C7.12625 8.33463 7.49935 8.70773 7.49935 9.16797ZM6.66602 13.3346C7.12625 13.3346 7.49935 12.9615 7.49935 12.5013C7.49935 12.0411 7.12625 11.668 6.66602 11.668C6.20578 11.668 5.83268 12.0411 5.83268 12.5013C5.83268 12.9615 6.20578 13.3346 6.66602 13.3346ZM10.8327 9.16797C10.8327 9.62821 10.4596 10.0013 9.99935 10.0013C9.53911 10.0013 9.16602 9.62821 9.16602 9.16797C9.16602 8.70773 9.53911 8.33463 9.99935 8.33463C10.4596 8.33463 10.8327 8.70773 10.8327 9.16797ZM9.99935 13.3346C10.4596 13.3346 10.8327 12.9615 10.8327 12.5013C10.8327 12.0411 10.4596 11.668 9.99935 11.668C9.53911 11.668 9.16602 12.0411 9.16602 12.5013C9.16602 12.9615 9.53911 13.3346 9.99935 13.3346ZM14.166 9.16797C14.166 9.62821 13.7929 10.0013 13.3327 10.0013C12.8724 10.0013 12.4993 9.62821 12.4993 9.16797C12.4993 8.70773 12.8724 8.33463 13.3327 8.33463C13.7929 8.33463 14.166 8.70773 14.166 9.16797ZM13.3327 13.3346C13.7929 13.3346 14.166 12.9615 14.166 12.5013C14.166 12.0411 13.7929 11.668 13.3327 11.668C12.8724 11.668 12.4993 12.0411 12.4993 12.5013C12.4993 12.9615 12.8724 13.3346 13.3327 13.3346ZM14.166 15.8346C14.166 16.2949 13.7929 16.668 13.3327 16.668C12.8724 16.668 12.4993 16.2949 12.4993 15.8346C12.4993 15.3744 12.8724 15.0013 13.3327 15.0013C13.7929 15.0013 14.166 15.3744 14.166 15.8346ZM5.83268 15.8346C5.83268 15.3744 6.20578 15.0013 6.66601 15.0013H9.99935C10.4596 15.0013 10.8327 15.3744 10.8327 15.8346C10.8327 16.2949 10.4596 16.668 9.99935 16.668H6.66601C6.20578 16.668 5.83268 16.2949 5.83268 15.8346ZM14.166 3.33464H5.83268V6.66797H14.166V3.33464Z" fill="#0086E1"/>
</svg>
