<svg width="20" height="20" viewBox="0 0 20 20" fill="none" xmlns="http://www.w3.org/2000/svg">
<path d="M3.74937 6.25H2.0827C1.8527 6.25 1.66602 6.43668 1.66602 6.66668C1.66602 6.89668 1.8527 7.08336 2.0827 7.08336H3.74937C3.97937 7.08336 4.16605 6.89668 4.16605 6.66668C4.16605 6.43668 3.97937 6.25 3.74937 6.25Z" fill="#0086E1"/>
<path d="M17.0641 7.37547C16.9849 7.12629 15.3949 3.75715 14.7999 3.39547C14.1807 3.01879 10.4766 2.91797 9.9999 2.91797C9.52323 2.91797 5.81908 3.01879 5.1999 3.39547C4.6049 3.75629 3.01491 7.12629 2.93573 7.37547C2.86573 7.59465 2.98823 7.82879 3.20741 7.89879C3.42908 7.96797 3.66159 7.84629 3.73073 7.62711C3.86155 7.21293 5.30655 4.39293 5.62405 4.11293C5.97658 3.94461 8.5724 3.75129 9.9999 3.75129C11.4274 3.75129 14.0232 3.94461 14.3466 4.09297C14.6924 4.39297 16.1383 7.21297 16.2691 7.62715C16.3258 7.80465 16.4899 7.91797 16.6666 7.91797C16.7083 7.91797 16.7508 7.91215 16.7933 7.89879C17.0116 7.82879 17.1341 7.59461 17.0641 7.37547Z" fill="#0086E1"/>
<path d="M3.75 14.5834C3.555 14.5834 3.39832 14.72 3.35332 14.9009L0.83332 14.2709V14.1667C0.83332 13.9367 0.646641 13.75 0.416641 13.75C0.186641 13.75 0 13.9367 0 14.1667V15.8334C0 16.5226 0.56082 17.0834 1.25 17.0834H2.91668C3.60586 17.0834 4.16668 16.5226 4.16668 15.8334V15C4.16668 14.77 3.98 14.5834 3.75 14.5834Z" fill="#0086E1"/>
<path d="M19.5841 13.75C19.354 13.75 19.1674 13.9367 19.1674 14.1667V14.2709L16.6473 14.9009C16.6023 14.72 16.4457 14.5834 16.2507 14.5834C16.0207 14.5834 15.834 14.77 15.834 15V15.8334C15.834 16.5225 16.3948 17.0834 17.084 17.0834H18.7507C19.4399 17.0834 20.0007 16.5225 20.0007 15.8334V14.1667C20.0007 13.9367 19.8141 13.75 19.5841 13.75Z" fill="#0086E1"/>
<path d="M17.9173 6.25H16.2507C16.0207 6.25 15.834 6.43668 15.834 6.66668C15.834 6.89668 16.0207 7.08336 16.2507 7.08336H17.9173C18.1473 7.08336 18.334 6.89668 18.334 6.66668C18.334 6.43668 18.1473 6.25 17.9173 6.25Z" fill="#0086E1"/>
<path d="M19.9675 10.1836L18.8309 10.4111C18.6909 10.4328 15.8925 10.8361 15.1834 10.8361C15.0817 10.9169 14.9901 11.4519 15.0009 11.9528C17.5409 11.8328 19.5184 11.6736 19.55 11.6711L19.9992 11.6103C19.9984 11.0578 19.99 10.5861 19.9675 10.1836Z" fill="#0086E1"/>
<path d="M19.2847 8.34918C19.098 8.295 19.0005 8.15918 18.8155 7.8825L18.673 7.67418C18.4238 7.32668 17.9422 7.31168 17.4763 7.29836C17.3363 7.29418 17.1146 7.28754 17.0096 7.26336C16.9738 7.21086 16.9255 7.16668 16.8671 7.13504C16.0897 6.7075 13.1438 6.25 10.0005 6.25C6.85719 6.25 3.91133 6.7075 3.13383 7.135C3.07551 7.16668 3.02715 7.21082 2.99051 7.26418C2.88551 7.28836 2.66383 7.295 2.52383 7.29918C2.05883 7.3125 1.57715 7.32668 1.32801 7.67418L1.18551 7.88336C1.00051 8.16004 0.903008 8.29586 0.716328 8.35004C0.389648 8.44586 0.210508 8.78086 0.111328 9.39004L0.934648 9.59586C0.947969 9.59586 3.66633 10 4.58383 10C4.89883 10 5.17633 10.12 5.38633 10.3467C5.82801 10.8242 5.84883 11.6609 5.83801 11.9867C7.17883 12.0425 8.62633 12.0834 10.0005 12.0834C11.3763 12.0834 12.8247 12.0426 14.1672 11.9867C14.158 11.6184 14.1789 10.6959 14.5914 10.26C14.753 10.09 14.9572 10 15.1839 10C15.723 10 17.8989 9.70254 18.6914 9.58754L19.8839 9.34836C19.7838 8.76418 19.6047 8.4425 19.2847 8.34918ZM12.9172 11.25H7.08383C6.85383 11.25 6.66715 11.0633 6.66715 10.8333C6.66715 10.6033 6.85383 10.4166 7.08383 10.4166H12.9171C13.1471 10.4166 13.3338 10.6033 13.3338 10.8333C13.3338 11.0633 13.1472 11.25 12.9172 11.25Z" fill="#0086E1"/>
<path d="M19.6382 12.4989C19.5657 12.5048 14.4098 12.9189 9.99984 12.9189C5.58984 12.9189 0.434023 12.5048 0.383164 12.5014L0.0214844 12.4639C0.0664844 13.3681 0.205664 14.7239 0.637305 14.9539C1.0873 15.1931 6.29312 15.4189 9.9998 15.4189C13.7065 15.4189 18.9123 15.1931 19.3615 14.9531C19.7948 14.7223 19.934 13.3573 19.9782 12.4531L19.6382 12.4989Z" fill="#0086E1"/>
<path d="M4.77332 10.9146C4.72164 10.8588 4.66664 10.8363 4.58332 10.8363C3.6 10.8363 0.886641 10.4321 0.771641 10.4155L0.0291406 10.2305C0.00832031 10.6254 0.000820312 11.0879 0 11.6237L0.45918 11.6712C0.485859 11.6737 2.4625 11.8321 5.0025 11.9529C5.01082 11.6521 4.97082 11.1279 4.77332 10.9146Z" fill="#0086E1"/>
</svg>
