<svg width="44" height="40" viewBox="0 0 44 40" fill="none" xmlns="http://www.w3.org/2000/svg">
<rect y="40" width="40" height="44" transform="rotate(-90 0 40)" fill="#F2F9FD"/>
<path d="M33.5642 18.7314C32.8201 17.9874 31.4142 16.9315 31.2636 16.7809C31.113 16.6303 32.0844 16.8328 32.7104 16.7679C32.8038 16.7583 33.2975 16.726 33.4508 16.6625C33.7434 16.5415 33.734 15.62 33.6273 15.5133C33.0804 14.9667 31.5392 15.0146 31.2586 15.0146C30.9262 15.0146 30.9657 16.1263 30.7962 15.877C30.4963 15.4361 29.1864 12.4833 28.5937 12.2303C28.1898 12.0581 25.0976 11.9913 21.9998 12.0009C18.9021 11.9916 15.8099 12.0584 15.4063 12.2303C14.8132 12.4833 13.5037 15.4361 13.2038 15.877C13.0343 16.1263 13.0738 15.0146 12.7414 15.0146C12.4608 15.0146 10.9192 14.9667 10.3727 15.5133C10.2663 15.6196 10.2566 16.5412 10.5489 16.6625C10.7021 16.726 11.1958 16.7583 11.2896 16.7679C11.9156 16.8328 12.887 16.6303 12.7364 16.7809C12.5858 16.9315 11.1799 17.9874 10.4358 18.7314C9.72273 19.4445 9.93516 28.0946 10.7071 28.0946C11.7105 28.0946 12.2922 28.0946 13.4715 28.0946C13.7673 28.0946 13.6922 26.6125 13.6922 26.6125C13.6922 26.6125 14.66 26.6627 14.7102 26.6125C14.8209 26.5018 14.5995 26.1138 14.7933 26.1138C14.9871 26.1138 15.9781 26.1138 16.2374 26.1138C16.4968 26.1138 17.2039 26.3941 17.4808 26.3941C17.6155 26.3941 19.794 26.3941 21.9839 26.3941C21.9948 26.3941 26.3849 26.3941 26.5195 26.3941C26.7964 26.3941 27.5039 26.1138 27.7629 26.1138C28.0219 26.1138 29.0129 26.1138 29.2071 26.1138C29.4009 26.1138 29.1791 26.5018 29.2902 26.6125C29.34 26.6627 30.3081 26.6125 30.3081 26.6125C30.3081 26.6125 30.2327 28.0946 30.5289 28.0946C31.7081 28.0946 32.2899 28.0946 33.2929 28.0946C34.0648 28.0946 34.2773 19.4442 33.5642 18.7314ZM15.1101 24.909C15.0582 25.0596 14.8219 25.048 14.8219 25.048L11.9113 24.8186C11.9113 24.8186 11.8494 24.2893 11.8973 24.1065C12.0196 23.6394 12.3767 23.5506 12.6038 23.5303C13.2866 23.4685 15.0832 23.541 15.2494 23.5373C15.5679 23.5303 15.162 24.7584 15.1101 24.909ZM15.6424 20.6343C15.0543 20.6343 12.8099 20.5861 12.6234 20.5964C12.0692 20.626 10.8202 20.1626 10.9309 19.394C11.0316 18.6955 11.9907 18.4797 12.3335 18.511C12.893 18.5618 14.8136 18.7869 15.154 19.1273C15.5366 19.51 15.6613 20.014 15.8189 20.3807C15.8658 20.4897 15.8222 20.6343 15.6424 20.6343ZM26.3859 25.6746C26.2755 25.7002 17.7245 25.7002 17.6141 25.6746C17.4117 25.6274 16.8379 25.5609 16.9416 25.0958C17.0453 24.6307 17.1337 24.3548 17.2747 24.147C17.4326 23.914 17.6278 23.766 18.3346 23.766C18.6853 23.766 20.3299 23.766 21.9839 23.766C21.9948 23.766 22.0055 23.766 22.0165 23.766C23.6704 23.766 25.315 23.766 25.6658 23.766C26.3722 23.766 26.5677 23.9136 26.7256 24.147C26.8666 24.3551 26.9547 24.6307 27.0588 25.0958C27.1628 25.5609 26.588 25.6274 26.3859 25.6746ZM17.2232 19.2085C18.2887 19.0226 21.1956 19.0289 21.5484 19.3055C21.9327 19.6067 21.9014 20.8119 21.6627 21.2796C21.4137 21.7667 20.817 21.7032 20.1873 21.7055C18.8781 21.7105 18.0367 21.7125 17.403 21.4043C17.1391 21.2753 15.795 19.4575 17.2232 19.2085ZM26.5963 21.404C25.9627 21.7125 25.1209 21.7102 23.812 21.7052C23.1824 21.7028 22.5856 21.7663 22.3366 21.2793C22.0976 20.8119 22.0667 19.6067 22.451 19.3052C22.8037 19.0286 25.7107 19.0226 26.7762 19.2081C28.2047 19.4575 26.8606 21.2753 26.5963 21.404ZM22.0161 16.3554L22.0108 16.355H21.9998H21.9889H21.9835V16.3554L13.9279 16.1782C14.3435 15.0458 15.5659 13.0029 15.6939 12.9368C15.8302 12.8666 19.9785 12.6103 21.9832 12.6761V12.6771C21.9849 12.6771 21.9869 12.6771 21.9885 12.6771C21.9922 12.6771 21.9958 12.6771 21.9995 12.6768C22.0032 12.6768 22.0068 12.6768 22.0105 12.6771C22.0121 12.6771 22.0141 12.6771 22.0158 12.6771V12.6764C24.0205 12.6106 28.1691 12.8666 28.3051 12.9371C28.4338 13.0032 29.6555 15.0462 30.0711 16.1785L22.0161 16.3554ZM32.0891 24.8186L29.1781 25.048C29.1781 25.048 28.9418 25.0596 28.8899 24.909C28.838 24.7584 28.4318 23.5303 28.7503 23.5373C28.9165 23.541 30.7131 23.4685 31.3962 23.5303C31.6233 23.5509 31.9804 23.6394 32.1027 24.1065C32.1506 24.2893 32.0891 24.8186 32.0891 24.8186ZM31.3763 20.5961C31.1895 20.5861 28.9454 20.634 28.3573 20.634C28.1774 20.634 28.1339 20.4894 28.1808 20.38C28.3384 20.013 28.463 19.5093 28.8457 19.1267C29.1861 18.7862 31.107 18.5612 31.6662 18.5103C32.009 18.4791 32.9681 18.6952 33.0688 19.3933C33.1799 20.1626 31.9305 20.6257 31.3763 20.5961ZM22.5856 18.5692C22.5856 18.7404 22.3233 18.879 22.0002 18.879C21.6767 18.879 21.4147 18.7404 21.4147 18.5692C21.4147 18.3983 21.6767 18.2593 22.0002 18.2593C22.3233 18.2596 22.5856 18.3983 22.5856 18.5692Z" fill="#0086E1"/>
</svg>
