<svg width="20" height="20" viewBox="0 0 20 20" fill="none" xmlns="http://www.w3.org/2000/svg">
<path fill-rule="evenodd" clip-rule="evenodd" d="M4.16602 3.66797C4.16602 2.5634 5.06145 1.66797 6.16602 1.66797H13.8327C14.9373 1.66797 15.8327 2.5634 15.8327 3.66797V17.5013H11.2493V15.168C11.2493 14.6157 10.8016 14.168 10.2493 14.168H9.74935C9.19706 14.168 8.74935 14.6157 8.74935 15.168V17.5013H4.16602V3.66797ZM6.66602 4.33464C6.66602 3.78235 7.11373 3.33464 7.66602 3.33464H8.16602C8.7183 3.33464 9.16602 3.78235 9.16602 4.33464V4.83464C9.16602 5.38692 8.7183 5.83463 8.16602 5.83463H7.66602C7.11373 5.83463 6.66602 5.38692 6.66602 4.83464V4.33464ZM11.8327 3.33464C11.2804 3.33464 10.8327 3.78235 10.8327 4.33464V4.83464C10.8327 5.38692 11.2804 5.83463 11.8327 5.83463H12.3327C12.885 5.83463 13.3327 5.38692 13.3327 4.83464V4.33464C13.3327 3.78235 12.885 3.33464 12.3327 3.33464H11.8327ZM6.66602 7.66797C6.66602 7.11568 7.11373 6.66797 7.66602 6.66797H8.16602C8.7183 6.66797 9.16602 7.11568 9.16602 7.66797V8.16797C9.16602 8.72025 8.7183 9.16797 8.16602 9.16797H7.66602C7.11373 9.16797 6.66602 8.72025 6.66602 8.16797V7.66797ZM7.66602 10.0013C7.11373 10.0013 6.66602 10.449 6.66602 11.0013V11.5013C6.66602 12.0536 7.11373 12.5013 7.66602 12.5013H8.16602C8.7183 12.5013 9.16602 12.0536 9.16602 11.5013V11.0013C9.16602 10.449 8.7183 10.0013 8.16602 10.0013H7.66602ZM10.8327 11.0013C10.8327 10.449 11.2804 10.0013 11.8327 10.0013H12.3327C12.885 10.0013 13.3327 10.449 13.3327 11.0013V11.5013C13.3327 12.0536 12.885 12.5013 12.3327 12.5013H11.8327C11.2804 12.5013 10.8327 12.0536 10.8327 11.5013V11.0013Z" fill="#0086E1"/>
<rect x="10.834" y="6.66797" width="2.5" height="2.5" rx="1" fill="white"/>
<path opacity="0.3" d="M2.5 19.1567C2.5 18.2417 3.24174 17.5 4.15673 17.5H15.8433C16.7583 17.5 17.5 18.2417 17.5 19.1567V19.1567C17.5 19.1622 17.4955 19.1667 17.4901 19.1667H2.50994C2.50445 19.1667 2.5 19.1622 2.5 19.1567V19.1567Z" fill="#0086E1"/>
</svg>
