<svg width="20" height="20" viewBox="0 0 20 20" fill="none" xmlns="http://www.w3.org/2000/svg">
<path opacity="0.3" d="M8.21629 5.01147C8.28319 4.94457 8.37087 4.90243 8.46491 4.89198C8.69362 4.86657 8.89963 5.03137 8.92504 5.26008L9.36104 9.18411C9.36444 9.21469 9.36444 9.24556 9.36104 9.27614C9.33563 9.50485 9.12962 9.66965 8.90091 9.64424L4.97688 9.20824C4.88285 9.19779 4.79517 9.15565 4.72827 9.08875C4.56555 8.92603 4.56555 8.66221 4.72827 8.49949L5.88302 7.34474L4.6318 6.09352C4.46909 5.9308 4.46909 5.66698 4.6318 5.50426L5.22106 4.91501C5.38378 4.75229 5.6476 4.75229 5.81032 4.91501L7.06153 6.16623L8.21629 5.01147Z" fill="#0086E1"/>
<path fill-rule="evenodd" clip-rule="evenodd" d="M10.0671 12.3193L11.9038 10.4826C12.4111 9.97532 12.5368 9.20037 12.216 8.55872L12.1119 8.35059C11.7911 7.70894 11.9169 6.93399 12.4241 6.42672L14.7015 4.14938C14.8642 3.98666 15.128 3.98666 15.2907 4.14938C15.3224 4.18105 15.3487 4.21762 15.3688 4.25767L16.2887 6.09763C16.9925 7.50522 16.7167 9.20524 15.6039 10.318L10.6048 15.3171C9.39356 16.5283 7.60188 16.9513 5.97677 16.4096L3.96471 15.7389C3.7464 15.6661 3.62841 15.4302 3.70118 15.2119C3.72164 15.1505 3.7561 15.0947 3.80184 15.049L6.01123 12.8396C6.5185 12.3323 7.29345 12.2066 7.9351 12.5274L8.14323 12.6315C8.78488 12.9523 9.55983 12.8265 10.0671 12.3193Z" fill="#0086E1"/>
</svg>
