<svg width="20" height="20" viewBox="0 0 20 20" fill="none" xmlns="http://www.w3.org/2000/svg">
<path opacity="0.3" d="M9.99935 9.16667C8.1584 9.16667 6.66602 7.67428 6.66602 5.83333C6.66602 3.99238 8.1584 2.5 9.99935 2.5C11.8403 2.5 13.3327 3.99238 13.3327 5.83333C13.3327 7.67428 11.8403 9.16667 9.99935 9.16667Z" fill="#0086E1"/>
<path d="M2.50054 16.8314C2.82355 12.8541 6.05159 10.832 9.98612 10.832C13.976 10.832 17.2541 12.743 17.4983 16.832C17.508 16.9949 17.4983 17.4987 16.8722 17.4987C13.7843 17.4987 9.1956 17.4987 3.10625 17.4987C2.89726 17.4987 2.48295 17.048 2.50054 16.8314Z" fill="#0086E1"/>
</svg>
