<svg width="20" height="20" viewBox="0 0 20 20" fill="none" xmlns="http://www.w3.org/2000/svg">
<path fill-rule="evenodd" clip-rule="evenodd" d="M8.71855 6.67021C8.73679 6.4331 8.93451 6.25 9.17233 6.25V6.25C9.40614 6.25 9.60192 6.42718 9.62519 6.65983L10.0009 10.4167L12.6953 11.9564C12.8327 12.0349 12.9175 12.181 12.9175 12.3393V12.3393C12.9175 12.6301 12.641 12.8413 12.3605 12.7647L8.73286 11.7754C8.50149 11.7123 8.3475 11.4938 8.3659 11.2547L8.71855 6.67021Z" fill="white"/>
<path fill-rule="evenodd" clip-rule="evenodd" d="M5.27449 1.30783C5.01039 0.993081 4.50045 1.11355 4.40511 1.51321L3.52909 5.18584C3.45142 5.51149 3.70949 5.81999 4.04374 5.80105L7.82182 5.58696C8.23272 5.56367 8.4411 5.08164 8.17655 4.76636L7.29115 3.71119C8.01921 3.46238 8.79125 3.33243 9.58398 3.33243C13.496 3.33243 16.6673 6.50375 16.6673 10.4158C16.6673 14.3278 13.496 17.4991 9.58398 17.4991C5.67197 17.4991 2.50065 14.3278 2.50065 10.4158C2.50065 9.75904 2.58958 9.11582 2.76299 8.49761L1.15826 8.04748C0.94698 8.80071 0.833984 9.59504 0.833984 10.4158C0.833984 15.2483 4.75149 19.1658 9.58398 19.1658C14.4165 19.1658 18.334 15.2483 18.334 10.4158C18.334 5.58327 14.4165 1.66577 9.58398 1.66577C8.3684 1.66577 7.21072 1.91364 6.15872 2.36161L5.27449 1.30783Z" fill="white"/>
</svg>
