<svg width="20" height="20" viewBox="0 0 20 20" fill="none" xmlns="http://www.w3.org/2000/svg">
<path d="M7.62043 17.3197V14.764C7.62042 14.1164 8.14704 13.5902 8.79935 13.5862H11.1945C11.8497 13.5862 12.3809 14.1135 12.3809 14.764V14.764V17.3123C12.3809 17.874 12.8373 18.3305 13.4031 18.3346H15.0372C15.8003 18.3366 16.5329 18.037 17.0733 17.5019C17.6136 16.9668 17.9173 16.2403 17.9173 15.4826V8.22284C17.9173 7.61079 17.644 7.03023 17.1712 6.63755L11.6198 2.22986C10.6494 1.4589 9.26346 1.48381 8.32181 2.28912L2.88983 6.63755C2.3946 7.01865 2.09861 7.60094 2.08398 8.22284V15.4752C2.08398 17.0544 3.37347 18.3346 4.96413 18.3346H6.56089C6.83329 18.3366 7.09522 18.2305 7.28855 18.04C7.48187 17.8494 7.59059 17.5902 7.59058 17.3197H7.62043Z" fill="#1B2744"/>
</svg>
