<svg width="20" height="20" viewBox="0 0 20 20" fill="none" xmlns="http://www.w3.org/2000/svg">
<path fill-rule="evenodd" clip-rule="evenodd" d="M9.45113 16.6707C7.69727 15.0937 4.16602 11.5687 4.16602 8.75C4.16602 5 6.66602 2.5 10.416 2.5C14.166 2.5 16.666 5.625 16.666 8.75C16.666 11.1183 13.0763 14.9225 11.3379 16.6259C10.8134 17.1399 9.9972 17.1616 9.45113 16.6707ZM12.4993 7.91667C12.4993 9.06726 11.5666 10 10.416 10C9.26542 10 8.33268 9.06726 8.33268 7.91667C8.33268 6.76607 9.26542 5.83333 10.416 5.83333C11.5666 5.83333 12.4993 6.76607 12.4993 7.91667Z" fill="#0086E1"/>
</svg>
