<svg width="14" height="18" viewBox="0 0 14 18" fill="none" xmlns="http://www.w3.org/2000/svg">
<path d="M12.6548 4.30161C12.1809 3.36721 11.4796 2.56694 10.6156 1.97438C9.75155 1.38182 8.75241 1.01597 7.71002 0.910484C7.23848 0.863172 6.76338 0.863172 6.29184 0.910484C5.24947 1.01604 4.25035 1.38188 3.38627 1.97437C2.5222 2.56686 1.82089 3.36701 1.34677 4.3013C0.750268 5.49339 0.519862 6.83534 0.684577 8.15813C0.849292 9.48092 1.40176 10.7254 2.2724 11.7348L6.51796 16.8965C6.57659 16.9679 6.6503 17.0253 6.73378 17.0648C6.81726 17.1042 6.90844 17.1247 7.00077 17.1247C7.0931 17.1247 7.18429 17.1042 7.26777 17.0648C7.35125 17.0253 7.42495 16.9679 7.48358 16.8965L11.7291 11.7348C12.5998 10.7254 13.1522 9.48103 13.317 8.15829C13.4817 6.83555 13.2513 5.49365 12.6548 4.30161ZM7.00077 9.62448C6.50632 9.62448 6.02297 9.47786 5.61185 9.20316C5.20073 8.92845 4.88029 8.53801 4.69107 8.08119C4.50186 7.62438 4.45235 7.12171 4.54881 6.63676C4.64527 6.15181 4.88338 5.70635 5.23301 5.35672C5.58264 5.00709 6.02809 4.76898 6.51305 4.67252C6.998 4.57606 7.50067 4.62557 7.95748 4.81479C8.4143 5.004 8.80474 5.32444 9.07945 5.73556C9.35415 6.14668 9.50077 6.63003 9.50077 7.12448C9.5 7.78729 9.23635 8.42272 8.76768 8.89139C8.29901 9.36007 7.66358 9.62371 7.00077 9.62448Z" fill="#0086E1"/>
</svg>
