<svg width="20" height="20" viewBox="0 0 20 20" fill="none" xmlns="http://www.w3.org/2000/svg">
<path opacity="0.3" fill-rule="evenodd" clip-rule="evenodd" d="M9.99935 18.3346C14.6017 18.3346 18.3327 14.6037 18.3327 10.0013C18.3327 5.39893 14.6017 1.66797 9.99935 1.66797C5.39698 1.66797 1.66602 5.39893 1.66602 10.0013C1.66602 14.6037 5.39698 18.3346 9.99935 18.3346Z" fill="#0086E1"/>
<path opacity="0.3" fill-rule="evenodd" clip-rule="evenodd" d="M10.0007 9.16537C9.08018 9.16537 8.33398 8.41917 8.33398 7.4987C8.33398 6.57822 9.08018 5.83203 10.0007 5.83203C10.9211 5.83203 11.6673 6.57822 11.6673 7.4987C11.6673 8.41917 10.9211 9.16537 10.0007 9.16537ZM5.83429 13.7483C6.01373 11.2625 7.80709 9.9987 9.99294 9.9987C12.2095 9.9987 14.0307 11.1931 14.1664 13.7487C14.1718 13.8505 14.1664 14.1654 13.8186 14.1654H6.17079C6.05468 14.1654 5.82451 13.8837 5.83429 13.7483Z" fill="#0086E1"/>
<rect width="20" height="20" stroke="#0086E1"/>
</svg>
