<svg width="20" height="20" viewBox="0 0 20 20" fill="none" xmlns="http://www.w3.org/2000/svg">
<path d="M10 0C15.5142 0 20 4.48578 20 10C20 15.5142 15.5142 20 10 20C4.48578 20 0 15.5142 0 10C0 4.48578 4.48578 0 10 0Z" fill="#2196F3"/>
<path d="M5.6257 10.8326H9.16742V14.3743C9.16742 14.8344 9.54065 15.2076 10.0007 15.2076C10.4608 15.2076 10.834 14.8344 10.834 14.3743V10.8326H14.3757C14.8358 10.8326 15.209 10.4594 15.209 9.9993C15.209 9.53925 14.8358 9.16602 14.3757 9.16602H10.834V5.6243C10.834 5.16425 10.4608 4.79102 10.0007 4.79102C9.54065 4.79102 9.16742 5.16425 9.16742 5.6243V9.16602H5.6257C5.16565 9.16602 4.79242 9.53925 4.79242 9.9993C4.79242 10.4594 5.16565 10.8326 5.6257 10.8326Z" fill="#FAFAFA"/>
</svg>
