<svg width="20" height="20" viewBox="0 0 20 20" fill="none" xmlns="http://www.w3.org/2000/svg">
<path opacity="0.3" fill-rule="evenodd" clip-rule="evenodd" d="M4.16602 5.83333C4.16602 7.67428 5.6584 9.16667 7.49935 9.16667C9.3403 9.16667 10.8327 7.67428 10.8327 5.83333C10.8327 3.99238 9.3403 2.5 7.49935 2.5C5.6584 2.5 4.16602 3.99238 4.16602 5.83333ZM12.4993 9.16667C12.4993 10.5474 13.6186 11.6667 14.9993 11.6667C16.3801 11.6667 17.4993 10.5474 17.4993 9.16667C17.4993 7.78595 16.3801 6.66667 14.9993 6.66667C13.6186 6.66667 12.4993 7.78595 12.4993 9.16667Z" fill="#0086E1"/>
<path fill-rule="evenodd" clip-rule="evenodd" d="M7.48612 10.832C3.55159 10.832 0.323549 12.8541 0.00054307 16.8314C-0.0170515 17.048 0.39726 17.4987 0.606252 17.4987H14.3722C14.9983 17.4987 15.008 16.9949 14.9983 16.832C14.7541 12.743 11.476 10.832 7.48612 10.832ZM19.5466 17.4987H16.3332C16.3332 15.6229 15.7134 13.8919 14.6675 12.4992C17.5063 12.5302 19.8243 13.9654 19.9987 16.9987C20.0058 17.1209 19.9987 17.4987 19.5466 17.4987Z" fill="#0086E1"/>
</svg>
